<?xml version="1.0" standalone="no"?><!DOCTYPE svg PUBLIC "-//W3C//DTD SVG 1.1//EN" "http://www.w3.org/Graphics/SVG/1.1/DTD/svg11.dtd"><svg t="1652642838199" class="icon" viewBox="0 0 1024 1024" version="1.1" xmlns="http://www.w3.org/2000/svg" p-id="1576" xmlns:xlink="http://www.w3.org/1999/xlink" width="200" height="200"><defs><style type="text/css">@font-face { font-family: ProximaNova; src: url("../fonts/ProximaNova-Reg.otf") format("opentype"); font-weight: normal; font-style: normal; }
@font-face { font-family: ProximaNova; src: url("../fonts/ProximaNova-Sbold.otf") format("opentype"); font-style: normal; font-weight: 600; }
@font-face { font-family: ProximaNova; src: url("../fonts/ProximaNova-Bold.otf") format("opentype"); font-style: normal; font-weight: bold; }
@font-face { font-family: Roboto; src: url("../fonts/Roboto-Regular.ttf") format("truetype"); font-weight: normal; font-style: normal; }
@font-face { font-family: Roboto; src: url("../fonts/Roboto-Light.ttf") format("truetype"); font-style: normal; font-weight: 300; }
@font-face { font-family: Roboto; src: url("../fonts/Roboto-Bold.ttf") format("truetype"); font-style: normal; font-weight: bold; }
@font-face { font-family: Benton; src: url("../fonts/BentonSansRAK-Regular.otf") format("opentype"); font-weight: normal; font-style: normal; }
@font-face { font-family: Benton; src: url("../fonts/BentonSansRAK-Medium.otf") format("opentype"); font-style: normal; font-weight: 500; }
@font-face { font-family: Benton; src: url("../fonts/BentonSansRAK-Bold.otf") format("opentype"); font-style: normal; font-weight: bold; }
@font-face { font-family: Stag; src: url("../fonts/Stag-BlackItalic-Web.woff2") format("woff2"), url("../fonts/Stag-BlackItalic-Web.woff") format("woff"); font-weight: 900; font-style: italic; font-stretch: normal; }
@font-face { font-family: Stag; src: url("../fonts/Stag-Black-Web.woff2") format("woff2"), url("../fonts/Stag-Black-Web.woff") format("woff"); font-weight: 900; font-style: normal; font-stretch: normal; }
@font-face { font-family: Stag; src: url("../fonts/Stag-BoldItalic-Web.woff2") format("woff2"), url("../fonts/Stag-BoldItalic-Web.woff") format("woff"); font-weight: 700; font-style: italic; font-stretch: normal; }
@font-face { font-family: Stag; src: url("../fonts/Stag-Bold-Web.woff2") format("woff2"), url("../fonts/Stag-Bold-Web.woff") format("woff"); font-weight: 700; font-style: normal; font-stretch: normal; }
@font-face { font-family: Stag; src: url("../fonts/Stag-SemiboldItalic-Web.woff2") format("woff2"), url("../fonts/Stag-SemiboldItalic-Web.woff") format("woff"); font-weight: 600; font-style: italic; font-stretch: normal; }
@font-face { font-family: Stag; src: url("../fonts/Stag-Semibold-Web.woff2") format("woff2"), url("../fonts/Stag-Semibold-Web.woff") format("woff"); font-weight: 600; font-style: normal; font-stretch: normal; }
@font-face { font-family: Stag; src: url("../fonts/Stag-MediumItalic-Web.woff2") format("woff2"), url("../fonts/Stag-MediumItalic-Web.woff") format("woff"); font-weight: 500; font-style: italic; font-stretch: normal; }
@font-face { font-family: Stag; src: url("../fonts/Stag-Medium-Web.woff2") format("woff2"), url("../fonts/Stag-Medium-Web.woff") format("woff"); font-weight: 500; font-style: normal; font-stretch: normal; }
@font-face { font-family: Stag; src: url("../fonts/Stag-BookItalic-Web.woff2") format("woff2"), url("../fonts/Stag-BookItalic-Web.woff") format("woff"); font-weight: 400; font-style: italic; font-stretch: normal; }
@font-face { font-family: Stag; src: url("../fonts/Stag-Book-Web.woff2") format("woff2"), url("../fonts/Stag-Book-Web.woff") format("woff"); font-weight: 400; font-style: normal; font-stretch: normal; }
@font-face { font-family: Stag; src: url("../fonts/Stag-LightItalic-Web.woff2") format("woff2"), url("../fonts/Stag-LightItalic-Web.woff") format("woff"); font-weight: 300; font-style: italic; font-stretch: normal; }
@font-face { font-family: Stag; src: url("../fonts/Stag-Light-Web.woff2") format("woff2"), url("../fonts/Stag-Light-Web.woff") format("woff"); font-weight: 300; font-style: normal; font-stretch: normal; }
@font-face { font-family: Stag; src: url("../fonts/Stag-ThinItalic-Web.woff2") format("woff2"), url("../fonts/Stag-ThinItalic-Web.woff") format("woff"); font-weight: 100; font-style: italic; font-stretch: normal; }
@font-face { font-family: Stag; src: url("../fonts/Stag-Thin-Web.woff2") format("woff2"), url("../fonts/Stag-Thin-Web.woff") format("woff"); font-weight: 100; font-style: normal; font-stretch: normal; }
@font-face { font-family: Stag; src: url("../fonts/Stag-BoldDot-Web.woff2") format("woff2"), url("../fonts/Stag-BoldDot-Web.woff") format("woff"); font-weight: 700; font-style: normal; font-stretch: normal; }
@font-face { font-family: Stag; src: url("../fonts/Stag-ThinDot-Web.woff2") format("woff2"), url("../fonts/Stag-ThinDot-Web.woff") format("woff"); font-weight: 200; font-style: normal; font-stretch: normal; }
@font-face { font-family: RakutenIconFont; src: url("../fonts/fontawesome-webfont.woff2") format("woff2"), url("../fonts/fontawesome-webfont.woff") format("woff"); font-weight: normal; font-style: normal; }
@font-face { font-family: feedback-iconfont; src: url("//at.alicdn.com/t/font_1031158_u69w8yhxdu.woff2?t=1630033759944") format("woff2"), url("//at.alicdn.com/t/font_1031158_u69w8yhxdu.woff?t=1630033759944") format("woff"), url("//at.alicdn.com/t/font_1031158_u69w8yhxdu.ttf?t=1630033759944") format("truetype"); }
</style></defs><path d="M512 870.4c-44.8 0-181.333333-89.6-215.466667-140.8-87.466667-132.266667-106.666667-337.066667-110.933333-420.266667 0-10.666667 4.266667-23.466667 10.666667-29.866666 8.533333-8.533333 19.2-12.8 29.866666-12.8C307.2 264.533333 384 238.933333 448 192c38.4-27.733333 89.6-27.733333 128 0l2.133333 2.133333c64 46.933333 138.666667 72.533333 217.6 72.533334 23.466667 0 42.666667 19.2 42.666667 42.666666 2.133333 66.133333-4.266667 292.266667-113.066667 422.4-53.333333 61.866667-168.533333 138.666667-213.333333 138.666667zM512 213.333333c-12.8 0-27.733333 4.266667-38.4 12.8-70.4 53.333333-157.866667 81.066667-245.333333 81.066667 4.266667 59.733333 19.2 270.933333 104.533333 396.8 32 46.933333 157.866667 121.6 181.333333 123.733333 21.333333 0 128-59.733333 181.333334-123.733333 100.266667-119.466667 104.533333-332.8 102.4-394.666667h-2.133334c-87.466667 0-170.666667-27.733333-241.066666-78.933333l-2.133334-2.133333c-12.8-10.666667-25.6-14.933333-40.533333-14.933334zM42.666667 217.6c-12.8 0-21.333333-8.533333-21.333334-21.333333V87.466667C21.333333 51.2 51.2 21.333333 87.466667 21.333333H149.333333c12.8 0 21.333333 8.533333 21.333334 21.333334s-10.666667 21.333333-21.333334 21.333333H87.466667C74.666667 64 64 74.666667 64 87.466667v108.8c0 12.8-8.533333 21.333333-21.333333 21.333333zM149.333333 1002.666667H87.466667C51.2 1002.666667 21.333333 972.8 21.333333 936.533333v-98.133333c0-12.8 8.533333-21.333333 21.333334-21.333333s21.333333 8.533333 21.333333 21.333333v98.133333c0 12.8 10.666667 23.466667 23.466667 23.466667H149.333333c12.8 0 21.333333 8.533333 21.333334 21.333333s-10.666667 21.333333-21.333334 21.333334zM936.533333 1002.666667H874.666667c-12.8 0-21.333333-8.533333-21.333334-21.333334s8.533333-21.333333 21.333334-21.333333h61.866666c12.8 0 23.466667-10.666667 23.466667-23.466667v-98.133333c0-12.8 8.533333-21.333333 21.333333-21.333333s21.333333 8.533333 21.333334 21.333333v98.133333c0 36.266667-29.866667 66.133333-66.133334 66.133334zM981.333333 217.6c-12.8 0-21.333333-8.533333-21.333333-21.333333V87.466667c0-12.8-10.666667-23.466667-23.466667-23.466667H874.666667c-12.8 0-21.333333-8.533333-21.333334-21.333333s8.533333-21.333333 21.333334-21.333334h61.866666C972.8 21.333333 1002.666667 51.2 1002.666667 87.466667v108.8c0 12.8-8.533333 21.333333-21.333334 21.333333z" p-id="1577"></path><path d="M512 597.333333c-34.133333 0-64-27.733333-66.133333-61.866666l-14.933334-170.666667c-2.133333-23.466667 6.4-44.8 21.333334-61.866667S490.666667 277.333333 512 277.333333c21.333333 0 44.8 8.533333 59.733333 25.6 14.933333 17.066667 23.466667 38.4 21.333334 61.866667l-14.933334 170.666667C576 569.6 546.133333 597.333333 512 597.333333z m0-277.333333c-10.666667 0-21.333333 4.266667-27.733333 12.8-6.4 8.533333-10.666667 19.2-10.666667 29.866667l14.933333 170.666666c0 12.8 10.666667 23.466667 23.466667 23.466667s23.466667-10.666667 23.466667-23.466667l14.933333-170.666666c0-10.666667-2.133333-21.333333-10.666667-27.733334s-17.066667-14.933333-27.733333-14.933333zM512 746.666667c-36.266667 0-64-27.733333-64-64s27.733333-64 64-64 64 27.733333 64 64-27.733333 64-64 64z m0-85.333334c-12.8 0-21.333333 8.533333-21.333333 21.333334s8.533333 21.333333 21.333333 21.333333 21.333333-8.533333 21.333333-21.333333-8.533333-21.333333-21.333333-21.333334z" p-id="1578"></path></svg>