<?xml version="1.0" standalone="no"?><!DOCTYPE svg PUBLIC "-//W3C//DTD SVG 1.1//EN" "http://www.w3.org/Graphics/SVG/1.1/DTD/svg11.dtd"><svg t="1652644905280" class="icon" viewBox="0 0 1024 1024" version="1.1" xmlns="http://www.w3.org/2000/svg" p-id="8701" xmlns:xlink="http://www.w3.org/1999/xlink" width="200" height="200"><defs><style type="text/css">@font-face { font-family: ProximaNova; src: url("../fonts/ProximaNova-Reg.otf") format("opentype"); font-weight: normal; font-style: normal; }
@font-face { font-family: ProximaNova; src: url("../fonts/ProximaNova-Sbold.otf") format("opentype"); font-style: normal; font-weight: 600; }
@font-face { font-family: ProximaNova; src: url("../fonts/ProximaNova-Bold.otf") format("opentype"); font-style: normal; font-weight: bold; }
@font-face { font-family: Roboto; src: url("../fonts/Roboto-Regular.ttf") format("truetype"); font-weight: normal; font-style: normal; }
@font-face { font-family: Roboto; src: url("../fonts/Roboto-Light.ttf") format("truetype"); font-style: normal; font-weight: 300; }
@font-face { font-family: Roboto; src: url("../fonts/Roboto-Bold.ttf") format("truetype"); font-style: normal; font-weight: bold; }
@font-face { font-family: Benton; src: url("../fonts/BentonSansRAK-Regular.otf") format("opentype"); font-weight: normal; font-style: normal; }
@font-face { font-family: Benton; src: url("../fonts/BentonSansRAK-Medium.otf") format("opentype"); font-style: normal; font-weight: 500; }
@font-face { font-family: Benton; src: url("../fonts/BentonSansRAK-Bold.otf") format("opentype"); font-style: normal; font-weight: bold; }
@font-face { font-family: Stag; src: url("../fonts/Stag-BlackItalic-Web.woff2") format("woff2"), url("../fonts/Stag-BlackItalic-Web.woff") format("woff"); font-weight: 900; font-style: italic; font-stretch: normal; }
@font-face { font-family: Stag; src: url("../fonts/Stag-Black-Web.woff2") format("woff2"), url("../fonts/Stag-Black-Web.woff") format("woff"); font-weight: 900; font-style: normal; font-stretch: normal; }
@font-face { font-family: Stag; src: url("../fonts/Stag-BoldItalic-Web.woff2") format("woff2"), url("../fonts/Stag-BoldItalic-Web.woff") format("woff"); font-weight: 700; font-style: italic; font-stretch: normal; }
@font-face { font-family: Stag; src: url("../fonts/Stag-Bold-Web.woff2") format("woff2"), url("../fonts/Stag-Bold-Web.woff") format("woff"); font-weight: 700; font-style: normal; font-stretch: normal; }
@font-face { font-family: Stag; src: url("../fonts/Stag-SemiboldItalic-Web.woff2") format("woff2"), url("../fonts/Stag-SemiboldItalic-Web.woff") format("woff"); font-weight: 600; font-style: italic; font-stretch: normal; }
@font-face { font-family: Stag; src: url("../fonts/Stag-Semibold-Web.woff2") format("woff2"), url("../fonts/Stag-Semibold-Web.woff") format("woff"); font-weight: 600; font-style: normal; font-stretch: normal; }
@font-face { font-family: Stag; src: url("../fonts/Stag-MediumItalic-Web.woff2") format("woff2"), url("../fonts/Stag-MediumItalic-Web.woff") format("woff"); font-weight: 500; font-style: italic; font-stretch: normal; }
@font-face { font-family: Stag; src: url("../fonts/Stag-Medium-Web.woff2") format("woff2"), url("../fonts/Stag-Medium-Web.woff") format("woff"); font-weight: 500; font-style: normal; font-stretch: normal; }
@font-face { font-family: Stag; src: url("../fonts/Stag-BookItalic-Web.woff2") format("woff2"), url("../fonts/Stag-BookItalic-Web.woff") format("woff"); font-weight: 400; font-style: italic; font-stretch: normal; }
@font-face { font-family: Stag; src: url("../fonts/Stag-Book-Web.woff2") format("woff2"), url("../fonts/Stag-Book-Web.woff") format("woff"); font-weight: 400; font-style: normal; font-stretch: normal; }
@font-face { font-family: Stag; src: url("../fonts/Stag-LightItalic-Web.woff2") format("woff2"), url("../fonts/Stag-LightItalic-Web.woff") format("woff"); font-weight: 300; font-style: italic; font-stretch: normal; }
@font-face { font-family: Stag; src: url("../fonts/Stag-Light-Web.woff2") format("woff2"), url("../fonts/Stag-Light-Web.woff") format("woff"); font-weight: 300; font-style: normal; font-stretch: normal; }
@font-face { font-family: Stag; src: url("../fonts/Stag-ThinItalic-Web.woff2") format("woff2"), url("../fonts/Stag-ThinItalic-Web.woff") format("woff"); font-weight: 100; font-style: italic; font-stretch: normal; }
@font-face { font-family: Stag; src: url("../fonts/Stag-Thin-Web.woff2") format("woff2"), url("../fonts/Stag-Thin-Web.woff") format("woff"); font-weight: 100; font-style: normal; font-stretch: normal; }
@font-face { font-family: Stag; src: url("../fonts/Stag-BoldDot-Web.woff2") format("woff2"), url("../fonts/Stag-BoldDot-Web.woff") format("woff"); font-weight: 700; font-style: normal; font-stretch: normal; }
@font-face { font-family: Stag; src: url("../fonts/Stag-ThinDot-Web.woff2") format("woff2"), url("../fonts/Stag-ThinDot-Web.woff") format("woff"); font-weight: 200; font-style: normal; font-stretch: normal; }
@font-face { font-family: RakutenIconFont; src: url("../fonts/fontawesome-webfont.woff2") format("woff2"), url("../fonts/fontawesome-webfont.woff") format("woff"); font-weight: normal; font-style: normal; }
@font-face { font-family: feedback-iconfont; src: url("//at.alicdn.com/t/font_1031158_u69w8yhxdu.woff2?t=1630033759944") format("woff2"), url("//at.alicdn.com/t/font_1031158_u69w8yhxdu.woff?t=1630033759944") format("woff"), url("//at.alicdn.com/t/font_1031158_u69w8yhxdu.ttf?t=1630033759944") format("truetype"); }
</style></defs><path d="M437.251671 942.206295h-291.510462c-40.033044 0-72.480462-32.457347-72.480462-72.480463V144.950996c0-40.033044 32.447418-72.480462 72.480462-72.480463h652.294375c40.033044 0 72.480462 32.447418 72.480462 72.480463v248.022185c26.092966 11.447942 49.942017 26.529835 72.480462 43.567708V144.950996c0-80.046231-64.904765-144.950996-144.960924-144.950996H145.751138c-80.05616 0-144.960925 64.894836-144.960924 144.950996v724.774836c0 80.05616 64.904765 144.960925 144.950995 144.960925h364.348363a365.348196 365.348196 0 0 1-72.837901-72.480462z m0 0" fill="#323333" p-id="8702"></path><path d="M742.324916 476.782438c-151.1168 0-273.608781 122.50191-273.608781 273.608781s122.50191 273.608781 273.608781 273.608781 273.608781-122.50191 273.608781-273.608781-122.50191-273.608781-273.608781-273.608781z m0 478.678845c-113.278027 0-205.099851-91.831753-205.099851-205.09985s91.831753-205.099851 205.099851-205.099851S947.434695 637.093335 947.434695 750.361433c-0.009929 113.268098-91.831753 205.099851-205.109779 205.09985z m0 0" fill="#323333" p-id="8703"></path><path d="M857.380203 725.489712h-77.732813v-38.861442c0-21.466131-17.40524-38.871371-38.871372-38.871371-21.466131 0-38.871371 17.395311-38.871371 38.871371v77.732814c0 21.466131 17.40524 38.871371 38.871371 38.871371H857.380203c21.466131 0 38.861442-17.40524 38.861443-38.871371 0-21.466131-17.40524-38.871371-38.861443-38.871372zM457.595845 180.138771a38.643008 38.643008 0 0 0-54.648283 0L273.445827 309.640507l-51.848353-51.848353c-14.575523-14.575523-38.20614-14.575523-52.771734 0-14.575523 14.575523-14.575523 38.20614 0 52.781663l72.361316 72.371245c1.638257 2.79993 2.948863 5.679291 5.371498 8.082068 8.082068 8.002637 18.656272 11.428084 29.071615 11.03093a37.401904 37.401904 0 0 0 26.500049-10.961428c0.863808-0.853879 1.241104-1.946051 1.946051-2.958792L457.595845 234.707623a38.575492 38.575492 0 0 0 11.318867-27.284426c0-10.236624-4.07082-20.046309-11.318867-27.284426z m127.714546 66.543022c-21.466131 0-38.871371 17.395311-38.871371 38.861442s17.40524 38.871371 38.871371 38.871371h233.198441c21.466131 0 38.861442-17.395311 38.861442-38.871371 0-21.466131-17.395311-38.861442-38.861442-38.861442H585.310391zM402.957491 452.198654L273.445827 581.710319l-51.848353-51.848353c-14.575523-14.565594-38.20614-14.565594-52.771734 0-14.575523 14.575523-14.575523 38.20614 0 52.781663l72.361316 72.371245c1.638257 2.79993 2.948863 5.679291 5.371498 8.082068 8.082068 8.002637 18.656272 11.428084 29.071615 11.040859a37.401904 37.401904 0 0 0 26.500049-10.961429c0.863808-0.853879 1.241104-1.946051 1.946051-2.948862l153.519576-153.450075c13.294704-15.349972 12.460682-38.37493-1.916264-52.732018-14.367018-14.357089-37.391975-15.161324-52.72209-1.846763z m0 0" fill="#323333" p-id="8704"></path></svg>