<?xml version="1.0" standalone="no"?><!DOCTYPE svg PUBLIC "-//W3C//DTD SVG 1.1//EN" "http://www.w3.org/Graphics/SVG/1.1/DTD/svg11.dtd"><svg t="1652642919836" class="icon" viewBox="0 0 1024 1024" version="1.1" xmlns="http://www.w3.org/2000/svg" p-id="1723" xmlns:xlink="http://www.w3.org/1999/xlink" width="200" height="200"><defs><style type="text/css">@font-face { font-family: ProximaNova; src: url("../fonts/ProximaNova-Reg.otf") format("opentype"); font-weight: normal; font-style: normal; }
@font-face { font-family: ProximaNova; src: url("../fonts/ProximaNova-Sbold.otf") format("opentype"); font-style: normal; font-weight: 600; }
@font-face { font-family: ProximaNova; src: url("../fonts/ProximaNova-Bold.otf") format("opentype"); font-style: normal; font-weight: bold; }
@font-face { font-family: Roboto; src: url("../fonts/Roboto-Regular.ttf") format("truetype"); font-weight: normal; font-style: normal; }
@font-face { font-family: Roboto; src: url("../fonts/Roboto-Light.ttf") format("truetype"); font-style: normal; font-weight: 300; }
@font-face { font-family: Roboto; src: url("../fonts/Roboto-Bold.ttf") format("truetype"); font-style: normal; font-weight: bold; }
@font-face { font-family: Benton; src: url("../fonts/BentonSansRAK-Regular.otf") format("opentype"); font-weight: normal; font-style: normal; }
@font-face { font-family: Benton; src: url("../fonts/BentonSansRAK-Medium.otf") format("opentype"); font-style: normal; font-weight: 500; }
@font-face { font-family: Benton; src: url("../fonts/BentonSansRAK-Bold.otf") format("opentype"); font-style: normal; font-weight: bold; }
@font-face { font-family: Stag; src: url("../fonts/Stag-BlackItalic-Web.woff2") format("woff2"), url("../fonts/Stag-BlackItalic-Web.woff") format("woff"); font-weight: 900; font-style: italic; font-stretch: normal; }
@font-face { font-family: Stag; src: url("../fonts/Stag-Black-Web.woff2") format("woff2"), url("../fonts/Stag-Black-Web.woff") format("woff"); font-weight: 900; font-style: normal; font-stretch: normal; }
@font-face { font-family: Stag; src: url("../fonts/Stag-BoldItalic-Web.woff2") format("woff2"), url("../fonts/Stag-BoldItalic-Web.woff") format("woff"); font-weight: 700; font-style: italic; font-stretch: normal; }
@font-face { font-family: Stag; src: url("../fonts/Stag-Bold-Web.woff2") format("woff2"), url("../fonts/Stag-Bold-Web.woff") format("woff"); font-weight: 700; font-style: normal; font-stretch: normal; }
@font-face { font-family: Stag; src: url("../fonts/Stag-SemiboldItalic-Web.woff2") format("woff2"), url("../fonts/Stag-SemiboldItalic-Web.woff") format("woff"); font-weight: 600; font-style: italic; font-stretch: normal; }
@font-face { font-family: Stag; src: url("../fonts/Stag-Semibold-Web.woff2") format("woff2"), url("../fonts/Stag-Semibold-Web.woff") format("woff"); font-weight: 600; font-style: normal; font-stretch: normal; }
@font-face { font-family: Stag; src: url("../fonts/Stag-MediumItalic-Web.woff2") format("woff2"), url("../fonts/Stag-MediumItalic-Web.woff") format("woff"); font-weight: 500; font-style: italic; font-stretch: normal; }
@font-face { font-family: Stag; src: url("../fonts/Stag-Medium-Web.woff2") format("woff2"), url("../fonts/Stag-Medium-Web.woff") format("woff"); font-weight: 500; font-style: normal; font-stretch: normal; }
@font-face { font-family: Stag; src: url("../fonts/Stag-BookItalic-Web.woff2") format("woff2"), url("../fonts/Stag-BookItalic-Web.woff") format("woff"); font-weight: 400; font-style: italic; font-stretch: normal; }
@font-face { font-family: Stag; src: url("../fonts/Stag-Book-Web.woff2") format("woff2"), url("../fonts/Stag-Book-Web.woff") format("woff"); font-weight: 400; font-style: normal; font-stretch: normal; }
@font-face { font-family: Stag; src: url("../fonts/Stag-LightItalic-Web.woff2") format("woff2"), url("../fonts/Stag-LightItalic-Web.woff") format("woff"); font-weight: 300; font-style: italic; font-stretch: normal; }
@font-face { font-family: Stag; src: url("../fonts/Stag-Light-Web.woff2") format("woff2"), url("../fonts/Stag-Light-Web.woff") format("woff"); font-weight: 300; font-style: normal; font-stretch: normal; }
@font-face { font-family: Stag; src: url("../fonts/Stag-ThinItalic-Web.woff2") format("woff2"), url("../fonts/Stag-ThinItalic-Web.woff") format("woff"); font-weight: 100; font-style: italic; font-stretch: normal; }
@font-face { font-family: Stag; src: url("../fonts/Stag-Thin-Web.woff2") format("woff2"), url("../fonts/Stag-Thin-Web.woff") format("woff"); font-weight: 100; font-style: normal; font-stretch: normal; }
@font-face { font-family: Stag; src: url("../fonts/Stag-BoldDot-Web.woff2") format("woff2"), url("../fonts/Stag-BoldDot-Web.woff") format("woff"); font-weight: 700; font-style: normal; font-stretch: normal; }
@font-face { font-family: Stag; src: url("../fonts/Stag-ThinDot-Web.woff2") format("woff2"), url("../fonts/Stag-ThinDot-Web.woff") format("woff"); font-weight: 200; font-style: normal; font-stretch: normal; }
@font-face { font-family: RakutenIconFont; src: url("../fonts/fontawesome-webfont.woff2") format("woff2"), url("../fonts/fontawesome-webfont.woff") format("woff"); font-weight: normal; font-style: normal; }
@font-face { font-family: feedback-iconfont; src: url("//at.alicdn.com/t/font_1031158_u69w8yhxdu.woff2?t=1630033759944") format("woff2"), url("//at.alicdn.com/t/font_1031158_u69w8yhxdu.woff?t=1630033759944") format("woff"), url("//at.alicdn.com/t/font_1031158_u69w8yhxdu.ttf?t=1630033759944") format("truetype"); }
</style></defs><path d="M512 0C230.4 0 0 230.4 0 512s230.4 512 512 512c281.6 0 512-230.4 512-512S793.6 0 512 0L512 0zM512 960c-243.2 0-448-198.4-448-448 0-243.2 198.4-448 448-448 243.2 0 448 198.4 448 448C960 755.2 755.2 960 512 960L512 960z" p-id="1724"></path><path d="M780.8 569.6c6.4-19.2 6.4-38.4 6.4-57.6 0-153.6-121.6-275.2-275.2-275.2C358.4 236.8 236.8 358.4 236.8 512l0 6.4C204.8 544 185.6 576 185.6 620.8c0 70.4 57.6 128 128 128 12.8 0 25.6 0 44.8-6.4C403.2 768 454.4 787.2 512 787.2c76.8 0 147.2-32 192-83.2 19.2 19.2 38.4 38.4 70.4 38.4 51.2 0 89.6-38.4 89.6-89.6C864 608 825.6 569.6 780.8 569.6L780.8 569.6zM512 716.8c-38.4 0-70.4-12.8-96-25.6 12.8-19.2 25.6-44.8 25.6-76.8 0-70.4-57.6-128-128-128L307.2 486.4C313.6 390.4 403.2 307.2 512 307.2c115.2 0 204.8 89.6 204.8 204.8S627.2 716.8 512 716.8L512 716.8z" p-id="1725"></path></svg>